<svg width="35.000000" height="35.000000" viewBox="0 0 35 35" fill="none" xmlns="http://www.w3.org/2000/svg" xmlns:xlink="http://www.w3.org/1999/xlink">
	<desc>
			Created with Pixso.
	</desc>
	<defs/>
	<circle id="Ellipse 4" cx="17.500000" cy="17.500000" r="17.500000" fill="#FFFFFF" fill-opacity="1.000000"/>
	<path id="Vector" d="M17.5 25.16C17.26 25.16 17.03 25.13 16.84 25.06C13.94 24.06 9.33 20.53 9.33 15.31C9.33 12.65 11.48 10.5 14.12 10.5C15.41 10.5 16.61 11 17.5 11.89C18.38 11 19.58 10.5 20.87 10.5C23.51 10.5 25.66 12.66 25.66 15.31C25.66 20.54 21.05 24.06 18.15 25.06C17.96 25.13 17.73 25.16 17.5 25.16ZM14.12 11.63C12.11 11.63 10.47 13.28 10.47 15.31C10.47 20.5 15.46 23.39 17.21 23.99C17.35 24.03 17.65 24.03 17.78 23.99C19.53 23.39 24.53 20.51 24.53 15.31C24.53 13.28 22.89 11.63 20.88 11.63C19.72 11.63 18.65 12.17 17.96 13.11C17.75 13.4 17.26 13.4 17.05 13.11C16.34 12.17 15.28 11.63 14.12 11.63Z" fill="#343434" fill-opacity="1.000000" fill-rule="nonzero"/>
</svg>
